<svg xmlns="http://www.w3.org/2000/svg" viewBox="0 0 58.69 55"><defs><style>.cls-1{fill:#169996;}</style></defs><title>sAsset 10</title><g id="Layer_2" data-name="Layer 2"><g id="V2_-_AKTUALIZACJA" data-name="V2 - AKTUALIZACJA"><path class="cls-1" d="M13.08,55H4.88a2.56,2.56,0,0,1-2.56-2.56V13.22a2.56,2.56,0,0,1,2.56-2.56h8.2a2.57,2.57,0,0,1,2.57,2.56V52.44A2.57,2.57,0,0,1,13.08,55ZM4.88,12.57a.65.65,0,0,0-.64.65V52.44a.65.65,0,0,0,.64.65h8.2a.65.65,0,0,0,.65-.65V13.22a.65.65,0,0,0-.65-.65Z"/><path class="cls-1" d="M27,55H16.3a2.57,2.57,0,0,1-2.57-2.56V5.84A2.57,2.57,0,0,1,16.3,3.28H27a2.57,2.57,0,0,1,2.57,2.56v46.6A2.57,2.57,0,0,1,27,55ZM16.3,5.19a.65.65,0,0,0-.65.65v46.6a.65.65,0,0,0,.65.65H27a.65.65,0,0,0,.65-.65V5.84A.65.65,0,0,0,27,5.19Z"/><path class="cls-1" d="M35.08,55H30.16a2.56,2.56,0,0,1-2.56-2.56V8.3a2.56,2.56,0,0,1,2.56-2.56h4.92A2.57,2.57,0,0,1,37.65,8.3V52.44A2.57,2.57,0,0,1,35.08,55ZM30.16,7.65a.65.65,0,0,0-.64.65V52.44a.65.65,0,0,0,.64.65h4.92a.65.65,0,0,0,.65-.65V8.3a.65.65,0,0,0-.65-.65Z"/><path class="cls-1" d="M47.31,55h-9a2.57,2.57,0,0,1-2.57-2.56V2.56A2.57,2.57,0,0,1,38.3,0h9a2.57,2.57,0,0,1,2.57,2.56V52.44A2.57,2.57,0,0,1,47.31,55Zm-9-53.09a.65.65,0,0,0-.65.65V52.44a.65.65,0,0,0,.65.65h9a.65.65,0,0,0,.65-.65V2.56a.65.65,0,0,0-.65-.65Z"/><path class="cls-1" d="M53.81,55H50.53A2.57,2.57,0,0,1,48,52.44V5.84a2.57,2.57,0,0,1,2.57-2.56h3.28a2.56,2.56,0,0,1,2.56,2.56v5.31a1,1,0,0,1-1.92,0V5.84a.65.65,0,0,0-.64-.65H50.53a.65.65,0,0,0-.65.65v46.6a.65.65,0,0,0,.65.65h3.28a.65.65,0,0,0,.64-.65V16.84a1,1,0,0,1,1.92,0v35.6A2.56,2.56,0,0,1,53.81,55Z"/><path class="cls-1" d="M14.69,24.73H3.28a1,1,0,0,1-1-.95V20.5a1,1,0,0,1,1-1H14.69a1,1,0,0,1,1,1v3.28A1,1,0,0,1,14.69,24.73ZM4.24,22.82h9.49V21.45H4.24Z"/><path class="cls-1" d="M14.69,31.09H3.28a1,1,0,0,1-1-1V26.85a1,1,0,0,1,1-1H14.69a1,1,0,0,1,1,1v3.28A1,1,0,0,1,14.69,31.09ZM4.24,29.17h9.49V27.81H4.24Z"/><path class="cls-1" d="M10.66,46.46H7.31a1,1,0,1,1,0-1.91h3.35a1,1,0,0,1,0,1.91Z"/><path class="cls-1" d="M10.66,43.11H7.31a1,1,0,1,1,0-1.91h3.35a1,1,0,0,1,0,1.91Z"/><path class="cls-1" d="M23.3,46.46H20a1,1,0,1,1,0-1.91H23.3a1,1,0,0,1,0,1.91Z"/><path class="cls-1" d="M23.3,43.11H20a1,1,0,1,1,0-1.91H23.3a1,1,0,0,1,0,1.91Z"/><path class="cls-1" d="M23.21,33.27H20a2.57,2.57,0,0,1-2.58-2.58V16.11A2.58,2.58,0,0,1,20,13.53h3.17a2.59,2.59,0,0,1,2.58,2.58V30.69A2.58,2.58,0,0,1,23.21,33.27ZM20,15.44a.67.67,0,0,0-.67.67V30.69a.67.67,0,0,0,.67.67h3.17a.67.67,0,0,0,.67-.67V16.11a.67.67,0,0,0-.67-.67Z"/><path class="cls-1" d="M36.69,45H32.62a1,1,0,0,1,0-1.92h4.07a1,1,0,0,1,0,1.92Z"/><path class="cls-1" d="M36.69,16.52H32.32a1,1,0,0,1,0-1.92h4.37a1,1,0,1,1,0,1.92Z"/><path class="cls-1" d="M48.92,12.57H36.69a1,1,0,0,1-1-1V8.47a1,1,0,0,1,1-1H48.92a1,1,0,0,1,1,1v3.14A1,1,0,0,1,48.92,12.57ZM37.65,10.66H48V9.43H37.65Z"/><path class="cls-1" d="M48.92,28.15H36.69a1,1,0,0,1-1-1V24.05a1,1,0,0,1,1-1H48.92a1,1,0,0,1,1,1v3.14A1,1,0,0,1,48.92,28.15ZM37.65,26.24H48V25H37.65Z"/><path class="cls-1" d="M48.92,43.73H36.69a1,1,0,0,1-1-1V39.63a1,1,0,0,1,1-1H48.92a1,1,0,0,1,1,1v3.14A1,1,0,0,1,48.92,43.73ZM37.65,41.82H48V40.58H37.65Z"/><path class="cls-1" d="M45.47,49.88H40.14a1,1,0,0,1,0-1.92h5.33a1,1,0,0,1,0,1.92Z"/><path class="cls-1" d="M52.17,49.88a1,1,0,0,1-1-1V46.46a1,1,0,1,1,1.91,0v2.46A1,1,0,0,1,52.17,49.88Z"/><path class="cls-1" d="M52.17,43.73a1,1,0,0,1-1-1V36a1,1,0,1,1,1.91,0v6.81A1,1,0,0,1,52.17,43.73Z"/><path class="cls-1" d="M52.17,15.24a1,1,0,0,1-1-1V9.51a1,1,0,0,1,1.91,0v4.77A1,1,0,0,1,52.17,15.24Z"/><path class="cls-1" d="M57.73,55H1a1,1,0,1,1,0-1.91H57.73a1,1,0,1,1,0,1.91Z"/></g></g></svg>