<svg xmlns="http://www.w3.org/2000/svg" viewBox="0 0 52.28 55"><defs><style>.cls-1{fill:#169996;}</style></defs><title>sAsset 8</title><g id="Layer_2" data-name="Layer 2"><g id="V2_-_AKTUALIZACJA" data-name="V2 - AKTUALIZACJA"><path class="cls-1" d="M24.63,55a1,1,0,0,1-.45-.11,1,1,0,0,1-.51-.85V46a4.84,4.84,0,0,1,4.84-4.84h14A1,1,0,0,1,43,42.92L25.16,54.84A.94.94,0,0,1,24.63,55Zm3.88-11.92A2.93,2.93,0,0,0,25.58,46v6.25l13.77-9.18Z"/><path class="cls-1" d="M34.49,12.1H9a1,1,0,0,1-1-1V7a1,1,0,0,1,1-1H34.49a1,1,0,0,1,.95,1v4.13A1,1,0,0,1,34.49,12.1ZM9.92,10.19H33.53V8H9.92Z"/><path class="cls-1" d="M25.61,17.27H17.85a1,1,0,0,1,0-1.91h7.76a1,1,0,0,1,0,1.91Z"/><path class="cls-1" d="M34.72,22.45H9a1,1,0,1,1,0-1.91H34.72a1,1,0,0,1,0,1.91Z"/><path class="cls-1" d="M29.68,27.62H9a1,1,0,1,1,0-1.91H29.68a1,1,0,1,1,0,1.91Z"/><path class="cls-1" d="M24.28,32.8H9a1,1,0,1,1,0-1.91H24.28a1,1,0,0,1,0,1.91Z"/><path class="cls-1" d="M19.11,38H9a1,1,0,1,1,0-1.91H19.11a1,1,0,0,1,0,1.91Z"/><path class="cls-1" d="M20.5,44.74a.94.94,0,0,1-.68-.28l-4-4a.94.94,0,0,1,0-1.35L42.2,12.8a1,1,0,0,1,1.35,0l4,4a.94.94,0,0,1,0,1.35l-9,9a1,1,0,0,1-1.35-1.35l8.34-8.34-2.62-2.61-25,25,2.62,2.61L33.32,29.61A1,1,0,1,1,34.67,31l-13.5,13.5A.92.92,0,0,1,20.5,44.74Z"/><path class="cls-1" d="M46.84,18.4a1,1,0,0,1-.68-.28l-4-4a.94.94,0,0,1,0-1.35l2.5-2.5a1,1,0,0,1,1.36,0l4,4a1,1,0,0,1,0,1.35l-2.51,2.51A1,1,0,0,1,46.84,18.4Zm-2.62-4.92,2.62,2.61L48,14.94l-2.61-2.62Z"/><path class="cls-1" d="M48.86,15.4a.94.94,0,0,1-.68-.28l-3-3a1,1,0,0,1,0-1.35l1.4-1.39a2.75,2.75,0,0,1,2.12-.81,3.14,3.14,0,0,1,2.08.94,3.18,3.18,0,0,1,.94,2.09,2.72,2.72,0,0,1-.8,2.11l-1.4,1.4A.92.92,0,0,1,48.86,15.4Zm-1.64-3.94,1.64,1.64.72-.73a.85.85,0,0,0,.24-.67,1.25,1.25,0,0,0-.38-.83,1.28,1.28,0,0,0-.82-.38.87.87,0,0,0-.68.25Z"/><path class="cls-1" d="M14.71,46.56a1,1,0,0,1-.67-.28,1,1,0,0,1-.24-1l1.82-5.79a1,1,0,0,1,.69-.64,1,1,0,0,1,.9.25l4,4a.94.94,0,0,1,.25.9.92.92,0,0,1-.64.68L15,46.51A.93.93,0,0,1,14.71,46.56Zm2.26-5-.8,2.53,2.54-.79Z"/><path class="cls-1" d="M24.63,55H4.84A4.84,4.84,0,0,1,0,50.16v-1.9a1,1,0,0,1,1.91,0v1.9a2.93,2.93,0,0,0,2.93,2.93h19.5L41.55,41.62V21.78a1,1,0,1,1,1.91,0V42.13a.94.94,0,0,1-.43.79L25.16,54.84A1,1,0,0,1,24.63,55Z"/><path class="cls-1" d="M1,43.21a1,1,0,0,1-1-1V4.84A4.84,4.84,0,0,1,4.84,0H38.62a4.84,4.84,0,0,1,4.84,4.84V9.08a1,1,0,0,1-1.91,0V4.84a2.93,2.93,0,0,0-2.93-2.93H4.84A2.93,2.93,0,0,0,1.91,4.84V42.26A1,1,0,0,1,1,43.21Z"/><path class="cls-1" d="M49.35,22.18a1,1,0,0,1-1-.95v-.67a1,1,0,0,1,1.91,0v.67A1,1,0,0,1,49.35,22.18Z"/><path class="cls-1" d="M51.33,23.5h-.67a1,1,0,1,1,0-1.91h.67a1,1,0,0,1,0,1.91Z"/><path class="cls-1" d="M49.35,25.48a1,1,0,0,1-1-1v-.67a1,1,0,0,1,1.91,0v.67A1,1,0,0,1,49.35,25.48Z"/><path class="cls-1" d="M48,23.5h-.66a1,1,0,1,1,0-1.91H48a1,1,0,1,1,0,1.91Z"/><path class="cls-1" d="M43.53,47.73a1,1,0,0,1-1-1v-.66a1,1,0,1,1,1.91,0v.66A1,1,0,0,1,43.53,47.73Z"/><path class="cls-1" d="M45.51,49h-.67a1,1,0,0,1,0-1.91h.67a1,1,0,0,1,0,1.91Z"/><path class="cls-1" d="M43.53,51a1,1,0,0,1-1-1V49.4a1,1,0,1,1,1.91,0v.67A1,1,0,0,1,43.53,51Z"/><path class="cls-1" d="M42.21,49h-.66a1,1,0,1,1,0-1.91h.66a1,1,0,1,1,0,1.91Z"/></g></g></svg>