<svg xmlns="http://www.w3.org/2000/svg" viewBox="0 0 35 35"><defs><style>.cls-1,.cls-2{fill:#169895;}.cls-2{fill-rule:evenodd;}</style></defs><title>sAsset 7</title><g id="Layer_2" data-name="Layer 2"><g id="V2_-_AKTUALIZACJA" data-name="V2 - AKTUALIZACJA"><path class="cls-1" d="M17.5,35A17.5,17.5,0,1,1,35,17.5,17.52,17.52,0,0,1,17.5,35Zm0-33.12A15.62,15.62,0,1,0,33.12,17.5,15.64,15.64,0,0,0,17.5,1.88Z"/><path class="cls-1" d="M27.56,11.11a8.23,8.23,0,0,1-2.06.59c.33,0,.82-.65,1-.9a3.74,3.74,0,0,0,.69-1.25s0-.08,0-.1a.14.14,0,0,0-.11,0,10.26,10.26,0,0,1-2.45.94.17.17,0,0,1-.17,0,2.23,2.23,0,0,0-.21-.22,4.28,4.28,0,0,0-1.19-.73,4.18,4.18,0,0,0-1.82-.29,4.31,4.31,0,0,0-1.72.49,4.22,4.22,0,0,0-1.39,1.13,4.1,4.1,0,0,0-.83,1.67,4.3,4.3,0,0,0,0,1.75c0,.1,0,.12-.08.1A13.06,13.06,0,0,1,8.77,10c-.1-.11-.15-.11-.24,0a4.28,4.28,0,0,0,.73,5c.17.16.34.31.52.45A4.07,4.07,0,0,1,8.16,15C8.06,15,8,15,8,15.1a2.08,2.08,0,0,0,0,.49A4.31,4.31,0,0,0,10.68,19a2.6,2.6,0,0,0,.54.17,4.91,4.91,0,0,1-1.59,0c-.11,0-.16,0-.11.15a4.51,4.51,0,0,0,3.34,2.8,3.47,3.47,0,0,1,.45.06s0,0,0,0A5.23,5.23,0,0,1,11,23.48a8.15,8.15,0,0,1-3.46.45c-.19,0-.23,0-.28,0s0,.07,0,.12a7.74,7.74,0,0,0,.73.43,11.51,11.51,0,0,0,2.31.93,12.37,12.37,0,0,0,12-2.8c2.46-2.45,3.32-5.81,3.32-9.18,0-.13.16-.21.25-.28a7.87,7.87,0,0,0,1.62-1.69.5.5,0,0,0,.1-.33v0S27.64,11.08,27.56,11.11Z"/><path class="cls-2" d="M13.29,25.83Z"/><path class="cls-2" d="M13.29,25.83Z"/><path class="cls-2" d="M14,25.85s.36,0,0,0C14,25.83,14,25.85,14,25.85Z"/><path class="cls-2" d="M21.2,9.12a.07.07,0,0,1-.09,0Z"/></g></g></svg>