<svg xmlns="http://www.w3.org/2000/svg" viewBox="0 0 35 35"><defs><style>.cls-1{fill:#169895;}</style></defs><title>sAsset 8</title><g id="Layer_2" data-name="Layer 2"><g id="V2_-_AKTUALIZACJA" data-name="V2 - AKTUALIZACJA"><path class="cls-1" d="M17.5,35A17.5,17.5,0,1,1,35,17.5,17.52,17.52,0,0,1,17.5,35Zm0-33.12A15.62,15.62,0,1,0,33.12,17.5,15.64,15.64,0,0,0,17.5,1.88Z"/><path class="cls-1" d="M27.39,18.83v6.54a.29.29,0,0,1-.29.29H23.73a.29.29,0,0,1-.29-.29V19.29c0-1.6-.58-2.69-2-2.69a2.16,2.16,0,0,0-2,1.45,2.75,2.75,0,0,0-.13,1v6.36a.29.29,0,0,1-.29.29H15.61a.29.29,0,0,1-.3-.29c0-1.62,0-9.47,0-11.32a.3.3,0,0,1,.29-.3H19a.3.3,0,0,1,.29.3v1.39l0,0h0v0a3.93,3.93,0,0,1,3.57-2c2.6,0,4.55,1.7,4.55,5.35ZM9.46,25.66h3.37a.29.29,0,0,0,.29-.29V14.05a.3.3,0,0,0-.29-.3H9.46a.3.3,0,0,0-.29.3V25.37A.29.29,0,0,0,9.46,25.66Z"/><circle class="cls-1" cx="11.03" cy="10.12" r="2.12"/></g></g></svg>