<svg xmlns="http://www.w3.org/2000/svg" viewBox="0 0 38.02 50"><defs><style>.cls-1{fill:#59d8d4;}</style></defs><title>sAsset 1</title><g id="Layer_2" data-name="Layer 2"><g id="V2_-_AKTUALIZACJA" data-name="V2 - AKTUALIZACJA"><path class="cls-1" d="M38,.89V49.11a.9.9,0,0,1-1.79,0V.89A.9.9,0,0,1,38,.89Z"/><path class="cls-1" d="M33,35.94a.89.89,0,0,1-.89.89H8.93v6.7H32.06a.89.89,0,0,1,0,1.78H8a.89.89,0,0,1-.9-.89V35.94A.9.9,0,0,1,8,35h24A.89.89,0,0,1,33,35.94Z"/><path class="cls-1" d="M33,20.76a.89.89,0,0,1-.89.89H5.36v6.7h26.7a.89.89,0,0,1,0,1.78H4.46a.89.89,0,0,1-.89-.89V20.76a.89.89,0,0,1,.89-.89h27.6A.89.89,0,0,1,33,20.76Z"/><path class="cls-1" d="M33,14.06a.89.89,0,0,1-.89.9H.89a.89.89,0,0,1-.89-.9V5.58a.89.89,0,0,1,.89-.89H7.22a.89.89,0,0,1,0,1.78H1.79v6.7H32.06A.89.89,0,0,1,33,14.06Z"/><path class="cls-1" d="M27,5.58a.89.89,0,0,1-.89.89H23.4a.89.89,0,0,1,0-1.78h2.68A.89.89,0,0,1,27,5.58Z"/><path class="cls-1" d="M19.79,5.58a.89.89,0,0,1-.89.89H14.4a.89.89,0,1,1,0-1.78h4.5A.89.89,0,0,1,19.79,5.58Z"/><path class="cls-1" d="M10.79,5.58a.89.89,0,0,1-.89.89H7.22a.89.89,0,1,1,0-1.78H9.9A.89.89,0,0,1,10.79,5.58Z"/><path class="cls-1" d="M33,5.58a.89.89,0,0,1-.89.89h-6a.89.89,0,0,1,0-1.78h6A.89.89,0,0,1,33,5.58Z"/></g></g></svg>