<svg xmlns="http://www.w3.org/2000/svg" viewBox="0 0 30 30"><defs><style>.cls-1{fill:#59d8d4;}</style></defs><title>sAsset 1</title><g id="Layer_2" data-name="Layer 2"><g id="V2_-_AKTUALIZACJA" data-name="V2 - AKTUALIZACJA"><path class="cls-1" d="M2.83,29.17a1,1,0,0,1-.68-.26,1,1,0,0,1-.06-1.41L26.44,1.15A1,1,0,0,1,27.91,2.5L3.56,28.85A1,1,0,0,1,2.83,29.17Z"/><path class="cls-1" d="M15,30A15,15,0,1,1,20.84,1.18,1,1,0,0,1,20.06,3a13.06,13.06,0,1,0,6.59,6.23,1,1,0,1,1,1.79-.88A14.75,14.75,0,0,1,30,15,15,15,0,0,1,15,30Z"/><path class="cls-1" d="M28.17,28.17a1,1,0,0,1-.67-.26L1.15,3.56A1,1,0,0,1,2.5,2.09L28.85,26.44a1,1,0,0,1,.06,1.41A1,1,0,0,1,28.17,28.17Z"/></g></g></svg>