<svg xmlns="http://www.w3.org/2000/svg" xmlns:xlink="http://www.w3.org/1999/xlink" viewBox="0 0 175.42 36"><defs><style>.cls-1{fill:url(#linear-gradient);}</style><linearGradient id="linear-gradient" x1="-508" y1="-32.12" x2="-414.29" y2="61.59" gradientTransform="translate(542.51)" gradientUnits="userSpaceOnUse"><stop offset="0" stop-color="#3b1f69"/><stop offset="0.31" stop-color="#4d2d82"/><stop offset="1" stop-color="#744ab7"/></linearGradient></defs><title>sAsset 3</title><g id="Layer_2" data-name="Layer 2"><g id="V2_-_AKTUALIZACJA" data-name="V2 - AKTUALIZACJA"><path class="cls-1" d="M12.45,1.86V14.38H8.91V9.5H4.08v4.88H.54V1.86H4.08v4.7H8.91V1.86Z"/><path class="cls-1" d="M16.85,13.9a4.8,4.8,0,0,1-2.67-4.39,4.79,4.79,0,0,1,2.66-4.35,6.53,6.53,0,0,1,5.64,0,4.77,4.77,0,0,1,1.95,1.77,4.89,4.89,0,0,1,.7,2.58,5,5,0,0,1-.7,2.6,4.89,4.89,0,0,1-1.95,1.79,6.2,6.2,0,0,1-2.83.64A6.14,6.14,0,0,1,16.85,13.9Zm4.27-2.68a2.42,2.42,0,0,0,.57-1.71,2.37,2.37,0,0,0-.57-1.68,2.09,2.09,0,0,0-2.93,0,2.37,2.37,0,0,0-.57,1.68,2.42,2.42,0,0,0,.57,1.71,2,2,0,0,0,2.93,0Z"/><path class="cls-1" d="M42.49,4.69,39,14.38H35.75L33.93,9.1,32,14.38H28.74L25.29,4.69h3.22l2,5.86,2.06-5.86h2.9l2,5.91,2.06-5.91Z"/><path class="cls-1" d="M55.42,14a3.42,3.42,0,0,1-1,.42,6.21,6.21,0,0,1-1.32.14,4.17,4.17,0,0,1-2.91-.93,3.56,3.56,0,0,1-1-2.77V7.58H47.71V5h1.42V2.52h3.39V5h2.22V7.58H52.52V10.8a1.18,1.18,0,0,0,.28.82,1,1,0,0,0,.74.29,1.82,1.82,0,0,0,1-.3Z"/><path class="cls-1" d="M58.5,13.9a4.8,4.8,0,0,1-2.67-4.39,4.79,4.79,0,0,1,2.66-4.35,6.53,6.53,0,0,1,5.64,0,4.65,4.65,0,0,1,2,1.77,4.8,4.8,0,0,1,.7,2.58,4.87,4.87,0,0,1-.7,2.6,4.76,4.76,0,0,1-2,1.79,6.51,6.51,0,0,1-5.63,0Zm4.27-2.68a2.42,2.42,0,0,0,.57-1.71,2.37,2.37,0,0,0-.57-1.68,2.09,2.09,0,0,0-2.93,0,2.37,2.37,0,0,0-.57,1.68,2.42,2.42,0,0,0,.57,1.71,2,2,0,0,0,2.93,0Z"/><path class="cls-1" d="M83.86,1.11V14.38H80.62v-1a3.51,3.51,0,0,1-2.84,1.13,4.84,4.84,0,0,1-2.42-.62,4.48,4.48,0,0,1-1.72-1.76A5.28,5.28,0,0,1,73,9.51a5.2,5.2,0,0,1,.64-2.63,4.46,4.46,0,0,1,1.72-1.75,4.94,4.94,0,0,1,2.42-.61,3.51,3.51,0,0,1,2.68,1V1.11ZM79.94,11.22a2.42,2.42,0,0,0,.57-1.71A2.42,2.42,0,0,0,80,7.83a2.08,2.08,0,0,0-2.92,0,2.34,2.34,0,0,0-.58,1.68A2.38,2.38,0,0,0,77,11.22a1.91,1.91,0,0,0,1.46.62A1.89,1.89,0,0,0,79.94,11.22Z"/><path class="cls-1" d="M88.1,13.9a4.8,4.8,0,0,1-2.67-4.39,4.79,4.79,0,0,1,2.66-4.35,6.09,6.09,0,0,1,2.81-.64,6.23,6.23,0,0,1,2.83.64,4.77,4.77,0,0,1,2,1.77,4.89,4.89,0,0,1,.7,2.58,5,5,0,0,1-.7,2.6,4.89,4.89,0,0,1-2,1.79,6.23,6.23,0,0,1-2.83.64A6.14,6.14,0,0,1,88.1,13.9Zm4.27-2.68a2.42,2.42,0,0,0,.57-1.71,2.37,2.37,0,0,0-.57-1.68,2.09,2.09,0,0,0-2.93,0,2.38,2.38,0,0,0-.58,1.68,2.42,2.42,0,0,0,.58,1.71,2,2,0,0,0,2.93,0Z"/><path class="cls-1" d="M106.86,4.6V7.35h5.52v2.74h-5.52v4.29h-3.55V1.86h9.82V4.6Z"/><path class="cls-1" d="M114.65,3.09a1.65,1.65,0,0,1-.57-1.28,1.66,1.66,0,0,1,.57-1.29,2.12,2.12,0,0,1,1.5-.52,2.23,2.23,0,0,1,1.51.49,1.6,1.6,0,0,1,.57,1.26,1.72,1.72,0,0,1-.57,1.33,2.42,2.42,0,0,1-3,0Zm-.19,1.6h3.39v9.69h-3.39Z"/><path class="cls-1" d="M129.27,5.6a4.28,4.28,0,0,1,1.1,3.23v5.55H127v-5c0-1.32-.53-2-1.59-2A1.82,1.82,0,0,0,124,8a2.45,2.45,0,0,0-.53,1.71v4.69h-3.4V4.69h3.24v1a3.85,3.85,0,0,1,1.36-.9,4.58,4.58,0,0,1,1.72-.32A4,4,0,0,1,129.27,5.6Z"/><path class="cls-1" d="M135.33,4.67h-3.85V1.86h11.21V4.67h-3.82v9.71h-3.54Z"/><path class="cls-1" d="M152.73,10.39h-7a1.93,1.93,0,0,0,.83,1.15,2.77,2.77,0,0,0,1.55.41,3.41,3.41,0,0,0,1.21-.2,3.58,3.58,0,0,0,1-.64L152.08,13A5.29,5.29,0,0,1,148,14.54a6.67,6.67,0,0,1-3-.64,4.72,4.72,0,0,1-2.7-4.39,4.75,4.75,0,0,1,2.59-4.34,6.06,6.06,0,0,1,5.36,0,4.54,4.54,0,0,1,1.87,1.74,5.08,5.08,0,0,1,.69,2.69S152.76,9.85,152.73,10.39Zm-6.43-3a2,2,0,0,0-.67,1.21h4a2,2,0,0,0-.67-1.21,2.15,2.15,0,0,0-2.63,0Z"/><path class="cls-1" d="M156.43,13.9a4.75,4.75,0,0,1-2.68-4.39,4.8,4.8,0,0,1,.7-2.58,4.73,4.73,0,0,1,2-1.77,6.42,6.42,0,0,1,2.88-.64,5.49,5.49,0,0,1,2.84.71,3.87,3.87,0,0,1,1.7,2l-2.63,1.34a2.07,2.07,0,0,0-1.93-1.3,2,2,0,0,0-1.51.6,2.3,2.3,0,0,0-.6,1.68,2.34,2.34,0,0,0,.6,1.71,2,2,0,0,0,1.51.62,2.08,2.08,0,0,0,1.93-1.31l2.63,1.34a3.87,3.87,0,0,1-1.7,2,5.49,5.49,0,0,1-2.84.71A6.42,6.42,0,0,1,156.43,13.9Z"/><path class="cls-1" d="M174.32,5.6a4.28,4.28,0,0,1,1.1,3.23v5.55H172v-5c0-1.32-.53-2-1.59-2A1.82,1.82,0,0,0,169,8a2.45,2.45,0,0,0-.53,1.71v4.69h-3.4V1.11h3.4V5.58a3.71,3.71,0,0,1,1.31-.79,4.69,4.69,0,0,1,1.61-.27A4,4,0,0,1,174.32,5.6Z"/><path class="cls-1" d="M.57,24.55A1.65,1.65,0,0,1,0,23.27,1.67,1.67,0,0,1,.57,22a2.12,2.12,0,0,1,1.5-.52A2.23,2.23,0,0,1,3.58,22a1.6,1.6,0,0,1,.57,1.26,1.76,1.76,0,0,1-.57,1.34,2.15,2.15,0,0,1-1.51.52A2.12,2.12,0,0,1,.57,24.55Zm-.19,1.6H3.77v9.69H.38Z"/><path class="cls-1" d="M15.19,27.06a4.28,4.28,0,0,1,1.1,3.23v5.55h-3.4v-5c0-1.32-.53-2-1.59-2a1.82,1.82,0,0,0-1.4.58,2.45,2.45,0,0,0-.53,1.71v4.69H6V26.15H9.21V27.2a3.85,3.85,0,0,1,1.36-.9A4.58,4.58,0,0,1,12.29,26,4,4,0,0,1,15.19,27.06Z"/><path class="cls-1" d="M32.46,23.88A4.25,4.25,0,0,1,35.07,28,4.22,4.22,0,0,1,32.46,32a7.09,7.09,0,0,1-2.95.57H27.33v3.27H23.79V23.32h5.72A7.25,7.25,0,0,1,32.46,23.88ZM30.94,29.3A1.66,1.66,0,0,0,31.49,28a1.72,1.72,0,0,0-.55-1.36,2.46,2.46,0,0,0-1.65-.48h-2v3.67h2A2.46,2.46,0,0,0,30.94,29.3Z"/><path class="cls-1" d="M38.66,35.36A4.82,4.82,0,0,1,36,31a4.79,4.79,0,0,1,2.66-4.35A6.09,6.09,0,0,1,41.47,26a6.23,6.23,0,0,1,2.83.63,4.77,4.77,0,0,1,2,1.77,4.91,4.91,0,0,1-2,7,6.53,6.53,0,0,1-5.64,0Zm4.28-2.68A2.42,2.42,0,0,0,43.51,31a2.37,2.37,0,0,0-.57-1.68,2.09,2.09,0,0,0-2.93,0A2.34,2.34,0,0,0,39.43,31,2.38,2.38,0,0,0,40,32.68a2,2,0,0,0,2.93,0Z"/><path class="cls-1" d="M48.52,22.57h3.4V35.84h-3.4Z"/><path class="cls-1" d="M61.93,27.08a4.23,4.23,0,0,1,1.27,3.38v5.38H60V34.59A2.93,2.93,0,0,1,57.17,36a4.45,4.45,0,0,1-1.94-.39A2.94,2.94,0,0,1,54,34.54,2.79,2.79,0,0,1,53.56,33a2.46,2.46,0,0,1,1.06-2.13,5.57,5.57,0,0,1,3.25-.76H59.8c-.06-1-.74-1.54-2-1.54a4.72,4.72,0,0,0-1.42.22,3.83,3.83,0,0,0-1.21.62L54,27.11a6.4,6.4,0,0,1,2-.83A9.16,9.16,0,0,1,58.25,26,5.46,5.46,0,0,1,61.93,27.08Zm-2.77,6.49a1.57,1.57,0,0,0,.64-.84v-.84H58.34c-1,0-1.49.33-1.49,1a.89.89,0,0,0,.34.72,1.53,1.53,0,0,0,.93.26A1.88,1.88,0,0,0,59.16,33.57Z"/><path class="cls-1" d="M74.57,27.06a4.32,4.32,0,0,1,1.1,3.23v5.55h-3.4v-5c0-1.32-.53-2-1.59-2a1.83,1.83,0,0,0-1.41.58,2.45,2.45,0,0,0-.52,1.71v4.69h-3.4V26.15h3.23V27.2a4,4,0,0,1,1.36-.9A4.61,4.61,0,0,1,71.66,26,4,4,0,0,1,74.57,27.06Z"/><path class="cls-1" d="M88.24,22.57V35.84H85v-1A3.51,3.51,0,0,1,82.16,36a4.87,4.87,0,0,1-2.42-.62A4.48,4.48,0,0,1,78,33.62,5.28,5.28,0,0,1,77.38,31,5.2,5.2,0,0,1,78,28.34a4.46,4.46,0,0,1,1.72-1.75,5,5,0,0,1,2.42-.6,3.51,3.51,0,0,1,2.68,1V22.57ZM84.32,32.68A2.42,2.42,0,0,0,84.89,31a2.37,2.37,0,0,0-.56-1.68,1.9,1.9,0,0,0-1.46-.6,1.93,1.93,0,0,0-1.46.6A2.37,2.37,0,0,0,80.84,31a2.42,2.42,0,0,0,.57,1.71,1.91,1.91,0,0,0,1.46.62A1.89,1.89,0,0,0,84.32,32.68Z"/><path class="cls-1" d="M93.51,29.8a8.84,8.84,0,0,1,1.15-1.28,7.55,7.55,0,0,0,.77-.81,1.18,1.18,0,0,0,.25-.71,1,1,0,0,0-.44-.83,1.9,1.9,0,0,0-1.14-.31,2.49,2.49,0,0,0-1.29.34,2.6,2.6,0,0,0-.94.95L89.2,25.72a5,5,0,0,1,2.08-1.95,6.86,6.86,0,0,1,3.24-.7,5.89,5.89,0,0,1,3.42.89,2.83,2.83,0,0,1,1.3,2.47,3.31,3.31,0,0,1-.25,1.3,3.86,3.86,0,0,1-.6.95,11.46,11.46,0,0,1-.91.86,6.69,6.69,0,0,0-.89.89,1.35,1.35,0,0,0-.29.85H93.12A2.61,2.61,0,0,1,93.51,29.8Zm-.25,5.65a1.75,1.75,0,0,1-.57-1.33,1.7,1.7,0,0,1,.57-1.32,2,2,0,0,1,1.45-.52,2.08,2.08,0,0,1,1.47.52,1.7,1.7,0,0,1,.57,1.32,1.75,1.75,0,0,1-.57,1.33,2.21,2.21,0,0,1-2.92,0Z"/></g></g></svg>