<svg xmlns="http://www.w3.org/2000/svg" viewBox="0 0 74.75 55"><defs><style>.cls-1{fill:#169996;}</style></defs><title>sAsset 9</title><g id="Layer_2" data-name="Layer 2"><g id="V2_-_AKTUALIZACJA" data-name="V2 - AKTUALIZACJA"><path class="cls-1" d="M24.47,46.61H1.2A1.2,1.2,0,0,1,0,45.41V36.8a8.23,8.23,0,0,1,8.22-8.22H20a8.2,8.2,0,0,1,8.09,6.76,1.2,1.2,0,1,1-2.36.42A5.81,5.81,0,0,0,20,31H8.22A5.83,5.83,0,0,0,2.4,36.8v7.41H24.47a1.2,1.2,0,1,1,0,2.4Z"/><path class="cls-1" d="M7.17,46.61A1.2,1.2,0,0,1,6,45.41V38.85a1.2,1.2,0,1,1,2.4,0v6.56A1.2,1.2,0,0,1,7.17,46.61Z"/><path class="cls-1" d="M21,46.61a1.2,1.2,0,0,1-1.2-1.2V38.85a1.2,1.2,0,1,1,2.4,0v6.56A1.2,1.2,0,0,1,21,46.61Z"/><path class="cls-1" d="M15,36.54H13.23a1.2,1.2,0,1,1,0-2.4H15a1.2,1.2,0,0,1,0,2.4Z"/><path class="cls-1" d="M15,39.82H13.23a1.2,1.2,0,1,1,0-2.4H15a1.2,1.2,0,0,1,0,2.4Z"/><path class="cls-1" d="M15,43.1H13.23a1.21,1.21,0,0,1,0-2.41H15a1.21,1.21,0,0,1,0,2.41Z"/><path class="cls-1" d="M14.11,46.61a1.2,1.2,0,0,1-1.2-1.2V33.88a1.2,1.2,0,1,1,2.4,0V45.41A1.2,1.2,0,0,1,14.11,46.61Z"/><path class="cls-1" d="M14.11,27.45a6.81,6.81,0,1,1,6.8-6.8A6.82,6.82,0,0,1,14.11,27.45Zm0-11.21a4.41,4.41,0,1,0,4.4,4.41A4.42,4.42,0,0,0,14.11,16.24Z"/><path class="cls-1" d="M50.28,55H24.47a1.2,1.2,0,0,1-1.2-1.2V45.19A8.23,8.23,0,0,1,31.49,37H43.26a8.23,8.23,0,0,1,8.22,8.22V53.8A1.2,1.2,0,0,1,50.28,55ZM25.67,52.6H49.08V45.19a5.83,5.83,0,0,0-5.82-5.82H31.49a5.83,5.83,0,0,0-5.82,5.82Z"/><path class="cls-1" d="M30.44,55a1.2,1.2,0,0,1-1.2-1.2V47.24a1.2,1.2,0,1,1,2.4,0V53.8A1.2,1.2,0,0,1,30.44,55Z"/><path class="cls-1" d="M44.31,55a1.2,1.2,0,0,1-1.2-1.2V47.24a1.2,1.2,0,1,1,2.4,0V53.8A1.2,1.2,0,0,1,44.31,55Z"/><path class="cls-1" d="M38.25,44.93H36.5a1.2,1.2,0,1,1,0-2.4h1.75a1.2,1.2,0,1,1,0,2.4Z"/><path class="cls-1" d="M38.25,48.21H36.5a1.2,1.2,0,1,1,0-2.4h1.75a1.2,1.2,0,1,1,0,2.4Z"/><path class="cls-1" d="M38.25,51.49H36.5a1.2,1.2,0,1,1,0-2.4h1.75a1.2,1.2,0,1,1,0,2.4Z"/><path class="cls-1" d="M37.37,55a1.2,1.2,0,0,1-1.2-1.2V42.27a1.21,1.21,0,0,1,2.41,0V53.8A1.21,1.21,0,0,1,37.37,55Z"/><path class="cls-1" d="M37.37,35.85A6.81,6.81,0,1,1,44.18,29,6.82,6.82,0,0,1,37.37,35.85Zm0-11.21A4.4,4.4,0,1,0,41.78,29,4.41,4.41,0,0,0,37.37,24.64Z"/><path class="cls-1" d="M50.28,28.23a1.2,1.2,0,0,1-1.2-1.2V23a5.83,5.83,0,0,0-5.82-5.82H31.49A5.83,5.83,0,0,0,25.67,23V27a1.2,1.2,0,0,1-2.4,0V23a8.23,8.23,0,0,1,8.22-8.22H43.26A8.23,8.23,0,0,1,51.48,23V27A1.2,1.2,0,0,1,50.28,28.23Z"/><path class="cls-1" d="M30.44,24.13a1.2,1.2,0,0,1-1.2-1.2V21.65a1.2,1.2,0,0,1,2.4,0v1.28A1.2,1.2,0,0,1,30.44,24.13Z"/><path class="cls-1" d="M44.31,24.13a1.2,1.2,0,0,1-1.2-1.2V21.65a1.2,1.2,0,1,1,2.4,0v1.28A1.2,1.2,0,0,1,44.31,24.13Z"/><path class="cls-1" d="M37.37,13.61a6.81,6.81,0,1,1,6.81-6.8A6.81,6.81,0,0,1,37.37,13.61Zm0-11.21a4.41,4.41,0,1,0,4.41,4.41A4.42,4.42,0,0,0,37.37,2.4Z"/><path class="cls-1" d="M73.55,46.61H50.28a1.2,1.2,0,1,1,0-2.4H72.35V36.8A5.83,5.83,0,0,0,66.52,31H54.76A5.81,5.81,0,0,0,49,35.76a1.2,1.2,0,0,1-2.37-.42,8.22,8.22,0,0,1,8.1-6.76H66.52a8.23,8.23,0,0,1,8.23,8.22v8.61A1.2,1.2,0,0,1,73.55,46.61Z"/><path class="cls-1" d="M67.58,46.61a1.2,1.2,0,0,1-1.2-1.2V38.85a1.2,1.2,0,0,1,2.4,0v6.56A1.2,1.2,0,0,1,67.58,46.61Z"/><path class="cls-1" d="M53.7,46.61a1.2,1.2,0,0,1-1.2-1.2V38.85a1.21,1.21,0,0,1,2.41,0v6.56A1.21,1.21,0,0,1,53.7,46.61Z"/><path class="cls-1" d="M61.52,36.54H59.76a1.2,1.2,0,0,1,0-2.4h1.76a1.2,1.2,0,0,1,0,2.4Z"/><path class="cls-1" d="M61.52,39.82H59.76a1.2,1.2,0,1,1,0-2.4h1.76a1.2,1.2,0,1,1,0,2.4Z"/><path class="cls-1" d="M61.52,43.1H59.76a1.21,1.21,0,0,1,0-2.41h1.76a1.21,1.21,0,0,1,0,2.41Z"/><path class="cls-1" d="M60.64,46.61a1.2,1.2,0,0,1-1.2-1.2V33.88a1.2,1.2,0,0,1,2.4,0V45.41A1.2,1.2,0,0,1,60.64,46.61Z"/><path class="cls-1" d="M60.64,27.45a6.81,6.81,0,1,1,6.81-6.8A6.81,6.81,0,0,1,60.64,27.45Zm0-11.21A4.41,4.41,0,1,0,65,20.65,4.41,4.41,0,0,0,60.64,16.24Z"/></g></g></svg>